<?xml version="1.0" encoding="UTF-8"?>
<svg width="15px" height="18px" viewBox="0 0 15 18" version="1.1" xmlns="http://www.w3.org/2000/svg" xmlns:xlink="http://www.w3.org/1999/xlink">
    <!-- Generator: Sketch 41 (35326) - http://www.bohemiancoding.com/sketch -->
    <title>noun_596963_cc</title>
    <desc>Created with Sketch.</desc>
    <defs></defs>
    <g id="splash" stroke="none" stroke-width="1" fill="none" fill-rule="evenodd" opacity="0.5">
        <g transform="translate(-245.000000, -481.000000)" id="noun_596963_cc" fill="#294061">
            <g transform="translate(245.000000, 481.000000)">
                <g id="direction">
                    <g id="Group">
                        <path d="M1.13493541,16.256671 C1.13493541,16.9711332 1.72892916,17.5498153 2.46123725,17.5498153 L12.5387627,17.5498153 C13.2710708,17.5498153 13.8650646,16.9711332 13.8650646,16.256671 L13.8650646,5.13793933 L1.13493541,5.13793933 L1.13493541,16.256671 L1.13493541,16.256671 Z M15,1.95403338 L15,3.04951132 C15,3.43791644 14.6769508,3.75242761 14.2785865,3.75242761 L0.721413466,3.75242761 C0.323049239,3.75242761 0,3.43791644 0,3.04951132 L0,1.95403338 C0,1.56562826 0.323049239,1.25111709 0.721413466,1.25111709 L5.39331165,1.25111709 L5.39331165,0.703378121 C5.39331165,0.314973001 5.71588719,0 6.11425142,0 L8.88574856,0 C9.28411279,0 9.60668835,0.314973001 9.60668835,0.703378121 L9.60668835,1.25111709 L14.2785865,1.25111709 C14.6769508,1.25111709 15,1.56562826 15,1.95403338 L15,1.95403338 L15,1.95403338 Z" id="Shape"></path>
                    </g>
                </g>
            </g>
        </g>
    </g>
</svg>