<?xml version="1.0" encoding="UTF-8"?>
<svg width="73px" height="56px" viewBox="0 0 73 56" version="1.1" xmlns="http://www.w3.org/2000/svg" xmlns:xlink="http://www.w3.org/1999/xlink">
    <!-- Generator: Sketch 41 (35326) - http://www.bohemiancoding.com/sketch -->
    <title>chart</title>
    <desc>Created with Sketch.</desc>
    <defs>
        <circle id="path-1" cx="9" cy="9" r="9"></circle>
        <mask id="mask-2" maskContentUnits="userSpaceOnUse" maskUnits="objectBoundingBox" x="0" y="0" width="18" height="18" fill="white">
            <use xlink:href="#path-1"></use>
        </mask>
        <circle id="path-3" cx="9" cy="9" r="9"></circle>
        <mask id="mask-4" maskContentUnits="userSpaceOnUse" maskUnits="objectBoundingBox" x="0" y="0" width="18" height="18" fill="white">
            <use xlink:href="#path-3"></use>
        </mask>
    </defs>
    <g id="Index" stroke="none" stroke-width="1" fill="none" fill-rule="evenodd">
        <g id="collection" transform="translate(-7169.000000, -11680.000000)">
            <g id="demos" transform="translate(6445.000000, 10622.000000)">
                <g id="Group-35">
                    <g id="chart" transform="translate(724.000000, 1058.000000)">
                        <path d="M11.8,49.9 L21.5,38.6 L25.6,43.4 C26.1,44 26.9,44.4 27.7,44.3 C28.5,44.2 29.2,43.8 29.7,43.2 L39.2,28.6 L45.1,38.5 C45.6,39.3 46.4,39.7 47.3,39.7 L47.3,39.7 C48.2,39.7 49,39.2 49.5,38.4 L69.1,4.5 C69.8,3.3 69.4,1.7 68.2,1 C67,0.3 65.4,0.7 64.7,1.9 L47.2,32.2 L41.5,22.5 C41.1,21.7 40.3,21.3 39.4,21.3 C39.4,21.3 39.4,21.3 39.3,21.3 C38.4,21.3 37.6,21.7 37.2,22.4 L27.3,37.6 L23.5,33.1 C23,32.5 22.3,32.2 21.6,32.2 C20.9,32.2 20.2,32.5 19.7,33.1 L7.9,46.6 C7,47.7 7.1,49.3 8.2,50.2 C8.7,50.6 9.3,50.8 9.8,50.8 C10.5,50.8 11.3,50.5 11.8,49.9 L11.8,49.9 Z" id="Shape" fill="#FFFFFF"></path>
                        <g id="Group-8-Copy-4" transform="translate(55.000000, 0.000000)">
                            <rect id="Rectangle-10" fill="#294061" x="5" y="5" width="12" height="12"></rect>
                            <use id="Oval-2-Copy" stroke="#FFFFFF" mask="url(#mask-2)" stroke-width="10" xlink:href="#path-1"></use>
                        </g>
                        <g id="Group-8-Copy-6" transform="translate(0.000000, 38.000000)">
                            <rect id="Rectangle-10" fill="#294061" x="4" y="4" width="12" height="12"></rect>
                            <use id="Oval-2-Copy" stroke="#FFFFFF" mask="url(#mask-4)" stroke-width="10" xlink:href="#path-3"></use>
                        </g>
                    </g>
                </g>
            </g>
        </g>
    </g>
</svg>