<?xml version="1.0" encoding="UTF-8"?>
<svg width="76px" height="119px" viewBox="0 0 76 119" version="1.1" xmlns="http://www.w3.org/2000/svg" xmlns:xlink="http://www.w3.org/1999/xlink">
    <!-- Generator: Sketch 40.3 (33839) - http://www.bohemiancoding.com/sketch -->
    <title>repeat</title>
    <desc>Created with Sketch.</desc>
    <defs></defs>
    <g id="Page-1" stroke="none" stroke-width="1" fill="none" fill-rule="evenodd">
        <g id="Group-26" transform="translate(-9906.000000, -3093.000000)" fill="#979797">
            <g id="desktop-copy-4" transform="translate(7588.000000, 505.000000)">
                <g id="desktop--copy-3" transform="translate(246.000000, 238.000000)">
                    <g id="features" transform="translate(2.000000, 1562.000000)">
                        <g transform="translate(331.000000, 741.000000)" id="repeat">
                            <g transform="translate(1739.000000, 10.000000)">
                                <g transform="translate(0.000000, 37.000000)" id="Shape">
                                    <path d="M32.4239492,15.2101451 C32.5075742,7.45457008 26.4077438,0.907630055 18.3324093,0.0857135882 C10.2570748,-0.736202879 2.84953113,4.43594169 1.21985183,12.0341576 C-0.409827474,19.6323735 4.2717997,27.1695408 12.0351257,29.4461654 L12.0351257,88.8447327 C4.57641873,91.0315943 -0.0848497891,98.1007393 1.07286487,105.46978 C2.23057953,112.838822 8.85888699,118.290198 16.6611613,118.290198 C24.4634356,118.290198 31.0917431,112.838822 32.2494577,105.46978 C33.4071724,98.1007393 28.7459039,91.0315943 21.2871969,88.8447327 L21.2871969,29.4461654 C27.8489152,27.5226799 32.3530459,21.765086 32.4239492,15.2101451 L32.4239492,15.2101451 Z M16.6611613,9.15574569 C20.1623053,9.15574569 23.0005434,11.8663926 23.0005434,15.2101451 C23.0005434,18.5538976 20.1623053,21.2645445 16.6611613,21.2645445 C13.1600173,21.2645445 10.3217792,18.5538976 10.3217792,15.2101451 C10.2755245,13.5762581 10.9229459,11.993923 12.1168609,10.8228622 C13.3107759,9.65180148 14.9497416,8.99151619 16.6611613,8.99211327 L16.6611613,9.15574569 Z M16.6611613,109.298785 C13.1600173,109.298785 10.3217792,106.588138 10.3217792,103.244385 C10.3217792,99.9006329 13.1600173,97.189986 16.6611613,97.189986 C20.1623053,97.189986 23.0005434,99.9006329 23.0005434,103.244385 C23.0005434,106.588138 20.1623053,109.298785 16.6611613,109.298785 L16.6611613,109.298785 Z"></path>
                                    <path d="M75.6002812,15.2101451 C75.6839062,7.45457008 69.5840758,0.907630055 61.5087413,0.0857135882 C53.4334069,-0.736202879 46.0258631,4.43594169 44.3961838,12.0341576 C42.7665045,19.6323735 47.4481317,27.1695408 55.2114577,29.4461654 L55.2114577,88.8447327 C47.7527507,91.0315943 43.0914822,98.1007393 44.2491969,105.46978 C45.4069115,112.838822 52.035219,118.290198 59.8374933,118.290198 C67.6397676,118.290198 74.2680751,112.838822 75.4257897,105.46978 C76.5835044,98.1007393 71.9222359,91.0315943 64.4635289,88.8447327 L64.4635289,29.4461654 C71.0252472,27.5226799 75.5293779,21.765086 75.6002812,15.2101451 L75.6002812,15.2101451 Z M59.8374933,9.15574569 C63.3386374,9.15574569 66.1768754,11.8663926 66.1768754,15.2101451 C66.1768754,18.5538976 63.3386374,21.2645445 59.8374933,21.2645445 C56.3363493,21.2645445 53.4981112,18.5538976 53.4981112,15.2101451 C53.4518565,13.5762581 54.0992779,11.993923 55.2931929,10.8228622 C56.487108,9.65180148 58.1260736,8.99151619 59.8374933,8.99211327 L59.8374933,9.15574569 Z M59.8374933,109.298785 C56.3363493,109.298785 53.4981112,106.588138 53.4981112,103.244385 C53.4981112,99.9006329 56.3363493,97.189986 59.8374933,97.189986 C63.3386374,97.189986 66.1768754,99.9006329 66.1768754,103.244385 C66.1768754,106.588138 63.3386374,109.298785 59.8374933,109.298785 L59.8374933,109.298785 Z"></path>
                                </g>
                            </g>
                        </g>
                    </g>
                </g>
            </g>
        </g>
    </g>
</svg>