<?xml version="1.0" encoding="UTF-8"?>
<svg width="68px" height="68px" viewBox="0 0 68 68" version="1.1" xmlns="http://www.w3.org/2000/svg" xmlns:xlink="http://www.w3.org/1999/xlink">
    <!-- Generator: Sketch 40.3 (33839) - http://www.bohemiancoding.com/sketch -->
    <title>logo</title>
    <desc>Created with Sketch.</desc>
    <defs></defs>
    <g id="Page-1" stroke="none" stroke-width="1" fill="none" fill-rule="evenodd">
        <g id="Group-26" transform="translate(-7959.000000, -769.000000)">
            <g id="desktop-copy-4" transform="translate(7588.000000, 505.000000)">
                <g id="desktop--copy-3" transform="translate(246.000000, 238.000000)">
                    <g id="nav" transform="translate(6.000000, 0.000000)">
                        <g id="logo" transform="translate(119.000000, 26.000000)">
                            <g>
                                <path d="M34.1958,61.5539 C18.8278,61.5539 6.3258,49.0519 6.3258,33.6839 C6.3258,18.3159 18.8278,5.8139 34.1958,5.8139 C49.5638,5.8139 62.0658,18.3159 62.0658,33.6839 C62.0658,49.0519 49.5638,61.5539 34.1958,61.5539 M34.1958,0.1549 C15.7078,0.1549 0.6668,15.1959 0.6668,33.6839 C0.6668,52.1719 15.7078,67.2129 34.1958,67.2129 C52.6838,67.2129 67.7248,52.1719 67.7248,33.6839 C67.7248,15.1959 52.6838,0.1549 34.1958,0.1549" id="Fill-20" fill="#FEFEFE"></path>
                                <path d="M47,40.9511202 C46.6822811,41.0040733 46.3645621,41.0040733 46.0468432,41.0040733 C42.8696538,41.0040733 40.2749491,38.885947 39.1099796,34.9674134 C40.3808554,30.413442 42.3401222,27.6069246 46.4175153,27.6069246 L46.9470468,27.6069246 L46.9470468,23.0529532 C46.6293279,23 46.2586558,23 45.9409369,23 C41.8635438,23 38.898167,25.5947047 37.2566191,29.7780041 L37.0977597,29.7780041 C35.1384929,25.6476578 32.0672098,24.2708758 29.2606925,24.2708758 C25.0773931,24.2708758 21,27.5010183 21,34.0142566 C21,39.892057 24.6008147,44.3930754 29.9490835,44.3930754 C32.8615071,44.3930754 35.7209776,42.8044807 37.4684318,39.0977597 L37.6272912,39.0448065 C39.3747454,43.1751527 42.3930754,45.7169043 46.6293279,45.7169043 L47,45.7169043 L47,40.9511202 L47,40.9511202 Z M29.6843177,40.0509165 C26.7718941,40.0509165 24.3360489,37.9857434 24.3360489,34.2260692 C24.3360489,30.1486762 27.1425662,28.5600815 29.790224,28.5600815 C32.8615071,28.5600815 34.9266802,30.7841141 35.8798371,33.6965377 C34.8207739,37.509165 33.0203666,40.0509165 29.6843177,40.0509165 L29.6843177,40.0509165 Z" id="Shape" fill="#FFFFFF"></path>
                            </g>
                        </g>
                    </g>
                </g>
            </g>
        </g>
    </g>
</svg>