<?xml version="1.0" encoding="UTF-8"?>
<svg width="63px" height="55px" viewBox="0 0 63 55" version="1.1" xmlns="http://www.w3.org/2000/svg" xmlns:xlink="http://www.w3.org/1999/xlink">
    <!-- Generator: Sketch 41 (35326) - http://www.bohemiancoding.com/sketch -->
    <title>pc</title>
    <desc>Created with Sketch.</desc>
    <defs></defs>
    <g id="Index" stroke="none" stroke-width="1" fill="none" fill-rule="evenodd">
        <g id="collection" transform="translate(-8555.000000, -12336.000000)">
            <g id="demos" transform="translate(6445.000000, 10622.000000)">
                <g id="Group-35">
                    <g id="vategory-row-copy" transform="translate(529.000000, 1549.000000)">
                        <g id="category-box-copy-2" transform="translate(1382.000000, 0.000000)">
                            <g id="circles" transform="translate(107.000000, 69.000000)">
                                <g id="pc" transform="translate(92.000000, 96.000000)">
                                    <path d="M4.2,40.2 L21.6,40.2 L21.6,43.5 L15.2,49.9 C14.4354844,50.6718425 14.2080283,51.8267137 14.6227655,52.8308142 C15.0375027,53.8349148 16.0136433,54.4926483 17.1,54.5 L45.1,54.5 C46.1863567,54.4926483 47.1624973,53.8349148 47.5772345,52.8308142 C47.9919717,51.8267137 47.7645156,50.6718425 47,49.9 L40.6,43.5 L40.6,40.2 L58.1,40.2 C60.4195959,40.2 62.3,38.3195959 62.3,36 L62.3,4.2 C62.3,1.88040405 60.4195959,0 58.1,0 L4.2,0 C1.88040405,0 0,1.88040405 0,4.2 L0,36 C0,38.3195959 1.88040405,40.2 4.2,40.2 L4.2,40.2 Z" id="Path" fill="#FFFFFF"></path>
                                    <polygon id="Path" fill="#294061" points="5.4 5.4 56.8 5.4 56.8 34.7 5.4 34.7"></polygon>
                                    <path d="M36,46.6 L38.5,49.1 L23.8,49.1 L26.3,46.6 C26.8074744,46.0974081 27.095134,45.4142165 27.1,44.7 L27.1,40.2 L35.3,40.2 L35.3,44.6 C35.2780249,45.3001595 35.5290277,45.9814528 36,46.5 L36,46.6 Z" id="Path" fill="#294061"></path>
                                </g>
                            </g>
                        </g>
                    </g>
                </g>
            </g>
        </g>
    </g>
</svg>