<?xml version="1.0" encoding="UTF-8"?>
<svg width="67px" height="66px" viewBox="0 0 67 66" version="1.1" xmlns="http://www.w3.org/2000/svg" xmlns:xlink="http://www.w3.org/1999/xlink">
    <!-- Generator: Sketch 41 (35326) - http://www.bohemiancoding.com/sketch -->
    <title>pie</title>
    <desc>Created with Sketch.</desc>
    <defs></defs>
    <g id="Index" stroke="none" stroke-width="1" fill="none" fill-rule="evenodd">
        <g id="collection" transform="translate(-7862.000000, -12329.000000)" fill="#FFFFFF">
            <g id="demos" transform="translate(6445.000000, 10622.000000)">
                <g id="Group-35">
                    <g id="vategory-row-copy" transform="translate(529.000000, 1549.000000)">
                        <g id="category-box-copy" transform="translate(692.000000, 0.000000)">
                            <g id="circles" transform="translate(107.000000, 69.000000)">
                                <g id="Group" transform="translate(89.000000, 89.000000)">
                                    <g id="pie">
                                        <path d="M36.1,5.2 C34.7,5.2 33.6,6.3 33.6,7.7 L33.6,33 L8.2,33 C6.8,33 5.7,34.1 5.7,35.5 C5.7,52.2 19.3,65.9 36.1,65.9 C52.9,65.9 66.5,52.3 66.5,35.5 C66.5,18.7 52.8,5.2 36.1,5.2 L36.1,5.2 Z M36.1,60.8 C23,60.8 12.4,50.8 11.1,38 L36.1,38 C37.5,38 38.6,36.9 38.6,35.5 L38.6,10.5 C51.3,11.8 61.4,22.5 61.4,35.5 C61.4,49.5 50,60.8 36.1,60.8 L36.1,60.8 Z" id="Shape"></path>
                                        <path d="M28.5,25.4 L28.5,2.6 C28.5,1.2 27.4,0.1 26,0.1 C12.1,0.1 0.7,11.4 0.7,25.4 C0.7,26.8 1.8,27.9 3.2,27.9 L25.9,27.9 C27.3,27.9 28.5,26.8 28.5,25.4 L28.5,25.4 Z M23.4,22.9 L5.9,22.9 C7,13.8 14.3,6.5 23.4,5.4 L23.4,22.9 L23.4,22.9 Z" id="Shape"></path>
                                    </g>
                                </g>
                            </g>
                        </g>
                    </g>
                </g>
            </g>
        </g>
    </g>
</svg>