<?xml version="1.0" encoding="UTF-8"?>
<svg width="30px" height="117px" viewBox="0 0 30 117" version="1.1" xmlns="http://www.w3.org/2000/svg" xmlns:xlink="http://www.w3.org/1999/xlink">
    <!-- Generator: Sketch 40.3 (33839) - http://www.bohemiancoding.com/sketch -->
    <title>Shape</title>
    <desc>Created with Sketch.</desc>
    <defs></defs>
    <g id="Page-1" stroke="none" stroke-width="1" fill="none" fill-rule="evenodd">
        <g id="Group-26" transform="translate(-8286.000000, -3093.000000)" fill="#979797">
            <g id="desktop-copy-4" transform="translate(7588.000000, 505.000000)">
                <g id="desktop--copy-3" transform="translate(246.000000, 238.000000)">
                    <g id="features" transform="translate(2.000000, 1562.000000)">
                        <g transform="translate(331.000000, 741.000000)" id="data">
                            <g>
                                <path d="M148.740199,62.0234651 C148.819084,54.3630772 143.064968,47.8964904 135.447311,47.0846616 C127.829654,46.2728328 120.84194,51.3814976 119.304624,58.8864577 C117.767308,66.3914177 122.1836,73.8360784 129.506932,76.0847611 L129.506932,134.915931 C122.470954,137.075952 118.073868,144.058335 119.165968,151.336933 C120.258068,158.615531 126.510709,164 133.870782,164 C141.230855,164 147.483497,158.615531 148.575597,151.336933 C149.667697,144.058335 145.27061,137.075952 138.234633,134.915931 L138.234633,76.0847611 C144.424459,74.1848832 148.673314,68.4979545 148.740199,62.0234651 L148.740199,62.0234651 Z M133.870782,56.0433736 C137.173496,56.0433736 139.850874,58.7207518 139.850874,62.0234651 C139.850874,65.3261783 137.173496,68.0035565 133.870782,68.0035565 C130.568069,68.0035565 127.890691,65.3261783 127.890691,62.0234651 C127.890691,60.4374462 128.520734,58.9163865 129.642219,57.7949019 C130.763704,56.6734172 132.284763,56.0433736 133.870782,56.0433736 L133.870782,56.0433736 Z M133.870782,154.957318 C130.568069,154.957318 127.890691,152.27994 127.890691,148.977227 C127.890691,145.674513 130.568069,142.997135 133.870782,142.997135 C137.173496,142.997135 139.850874,145.674513 139.850874,148.977227 C139.850874,152.27994 137.173496,154.957318 133.870782,154.957318 L133.870782,154.957318 Z" id="Shape"></path>
                            </g>
                        </g>
                    </g>
                </g>
            </g>
        </g>
    </g>
</svg>