<?xml version="1.0" encoding="UTF-8"?>
<svg width="75px" height="116px" viewBox="0 0 75 116" version="1.1" xmlns="http://www.w3.org/2000/svg" xmlns:xlink="http://www.w3.org/1999/xlink">
    <!-- Generator: Sketch 40.3 (33839) - http://www.bohemiancoding.com/sketch -->
    <title>Shape</title>
    <desc>Created with Sketch.</desc>
    <defs></defs>
    <g id="Page-1" stroke="none" stroke-width="1" fill="none" fill-rule="evenodd">
        <g id="Group-26" transform="translate(-9067.000000, -3094.000000)" fill="#A0A0A0">
            <g id="desktop-copy-4" transform="translate(7588.000000, 505.000000)">
                <g id="desktop--copy-3" transform="translate(246.000000, 238.000000)">
                    <g id="features" transform="translate(2.000000, 1562.000000)">
                        <g transform="translate(331.000000, 741.000000)" id="version">
                            <g transform="translate(900.000000, 6.000000)">
                                <path d="M60.0926305,42.152047 C52.9445445,42.2967251 46.9305917,47.5494194 45.8256627,54.6130727 C44.7207337,61.6767259 48.8433571,68.5150299 55.6058087,70.835658 C55.1792738,78.9287355 48.486965,85.2688176 40.3826631,85.2575854 L34.7741358,85.2575854 C28.9917521,85.2533987 23.4070468,87.3619099 19.0702594,91.1866 L19.0702594,70.835658 C26.0461416,68.6940857 30.405672,61.7713407 29.3228997,54.5549102 C28.2401275,47.3384798 22.0408905,42 14.7436812,42 C7.44647183,42 1.2472349,47.3384798 0.164462633,54.5549102 C-0.91830963,61.7713407 3.44122079,68.6940857 10.417103,70.835658 L10.417103,129.164342 C3.44122079,131.305914 -0.91830963,138.228659 0.164462633,145.44509 C1.2472349,152.66152 7.44647183,158 14.7436812,158 C22.0408905,158 28.2401275,152.66152 29.3228997,145.44509 C30.405672,138.228659 26.0461416,131.305914 19.0702594,129.164342 L19.0702594,116.505095 C19.2989012,115.946331 19.4080704,115.3459 19.3907467,114.742415 L19.3907467,109.294131 C19.3907467,100.88662 26.2063811,94.0709854 34.6138922,94.0709854 L40.2224195,94.0709854 C53.1308506,94.0813161 63.7426318,83.8940062 64.2589651,70.9959017 C71.2207884,68.8741524 75.5925513,61.9894984 74.5520876,54.786288 C73.5116239,47.5830777 67.3703079,42.2169794 60.0926305,42.152047 L60.0926305,42.152047 Z M14.7436812,50.965447 C18.0181855,50.965447 20.6726958,53.6199573 20.6726958,56.8944616 C20.6726958,60.1689659 18.0181855,62.8234762 14.7436812,62.8234762 C11.4691768,62.8234762 8.8146666,60.1689659 8.8146666,56.8944616 C8.8146666,55.3219892 9.43932884,53.8139211 10.5512348,52.7020152 C11.6631407,51.5901093 13.1712087,50.965447 14.7436812,50.965447 L14.7436812,50.965447 Z M14.7436812,149.034553 C11.4691768,149.034553 8.8146666,146.380043 8.8146666,143.105538 C8.8146666,139.831034 11.4691768,137.176524 14.7436812,137.176524 C18.0181855,137.176524 20.6726958,139.831034 20.6726958,143.105538 C20.6726958,146.380043 18.0181855,149.034553 14.7436812,149.034553 L14.7436812,149.034553 Z M60.0926305,62.9837198 C57.694568,62.9837198 55.5326341,61.5391618 54.6149353,59.3236409 C53.6972365,57.10812 54.2044978,54.5579451 55.9001841,52.8622588 C57.5958704,51.1665725 60.1460452,50.6593112 62.3615661,51.57701 C64.577087,52.4947088 66.0216451,54.6566427 66.0216451,57.0547052 C66.0216451,60.3292096 63.3671348,62.9837198 60.0926305,62.9837198 L60.0926305,62.9837198 Z" id="Shape"></path>
                            </g>
                        </g>
                    </g>
                </g>
            </g>
        </g>
    </g>
</svg>